Coordinates
version=1
nRows=12
nColumns=33
inDegrees=yes

Units are S.I. units (second, meters, Newtons, ...)
Angles are in degrees.

endheader
time	ground_thorax_rot_x	ground_thorax_rot_y	ground_thorax_rot_z	ground_thorax_tx	ground_thorax_ty	ground_thorax_tz	clav_prot_r	clav_elev_r	scapula_abduction_r	scapula_elevation_r	scapula_upward_rot_r	scapula_winging_r	shoulder_elv_r	plane_of_elev_r	axial_rot_r	elbow_flexion_r	pro_sup_r	wrist_flex_r	wrist_dev_r	clav_prot_l	clav_elev_l	scapula_abduction_l	scapula_elevation_l	scapula_upward_rot_l	scapula_winging_l	shoulder_elv_l	plane_of_elev_l	axial_rot_l	elbow_flexion_l	pro_sup_l	wrist_flex_l	wrist_dev_l
      7.32000000	    -39.10636228	    -14.99167543	     16.71032694	   -182.84395738	    821.24741048	    -11.35984371	      4.66902053	    -45.00000000	     34.05431733	    -45.00000000	    -19.33830623	    611.31219884	  -2092.50222141	     21.51786573	   -179.99999979	   1444.21595347	    -67.16704126	     19.59150307	      8.67504850	     15.62407824	     39.46262218	    -36.44258983	    -45.00000000	    -41.73045385	   1886.25274682	  -2439.13738802	     15.08754061	    179.99999979	   -361.74286235	   -140.96200186	     10.71769685	    -19.45728587
      7.33000000	    -39.05276257	    -14.89921872	     16.78097509	   -184.41593893	    822.42863849	    -11.42780053	      4.88070680	    -45.00000000	     34.03838183	    -45.00000000	    -19.87598247	    611.10666265	  -2092.64503463	     21.75430980	   -179.99999979	   1444.13442460	    -67.21769154	     19.75989593	      8.64688623	     15.45771990	     39.57786584	    -36.48248159	    -45.00000000	    -41.59317876	   1886.84422902	  -2439.36574844	     15.34785820	    179.99999979	   -361.58578409	   -139.52709724	     10.88742816	    -19.74935064
      7.34000000	    -38.96143199	    -14.84216995	     16.74991887	   -185.80019443	    823.51219872	    -11.44816800	      4.88370801	    -45.00000000	     34.02545098	    -45.00000000	    -19.85464088	    611.04085584	  -2092.55982247	     21.84144255	   -179.99999979	   1444.11571497	    -67.40095505	     19.81843758	      8.55118102	     15.54128984	     39.31612620	    -36.41178667	    -45.00000000	    -41.79658273	   1886.70969939	  -2439.24835543	     15.00748953	    179.99999979	   -361.83535925	   -138.20324335	     10.75177362	    -20.05674752
      7.35000000	    -38.93806738	    -14.75398741	     16.81436053	   -187.00404852	    824.49938984	    -11.42785717	      4.80914698	    -45.00000000	     34.07700079	    -45.00000000	    -19.59801432	    610.92461102	  -2092.45346281	     21.83326809	   -179.99999979	   1444.30192655	    -67.54257945	     19.78478188	      8.64200413	     15.39277042	     39.77620206	    -36.26243237	    -45.00000000	    -40.95364810	   1887.28662567	  -2439.57255713	     15.21052858	    179.99999979	   -361.52012561	   -137.16714526	     10.84061043	    -20.05288683
      7.36000000	    -38.98423346	    -14.66121536	     16.80067914	   -188.04281337	    825.39682786	    -11.36777615	      4.43299351	    -45.00000000	     34.05846651	    -45.00000000	    -19.09949770	    610.91338243	  -2092.29969745	     21.56940277	   -179.99999979	   1444.25655181	    -67.65866021	     19.70644492	      8.62841789	     15.20901583	     40.49730643	    -36.12476290	    -45.00000000	    -38.95164582	   1887.90787566	  -2439.98134929	     14.73087532	    179.99999979	   -361.12499269	   -136.40911370	     10.98266178	    -20.08189071
      7.37000000	    -39.02611127	    -14.52141501	     16.78239329	   -188.94536273	    826.22700031	    -11.27040915	      4.36248150	    -45.00000000	     34.17476042	    -45.00000000	    -18.97298089	    611.04408673	  -2092.26421162	     21.54320692	   -179.99999979	   1444.18913414	    -67.73329522	     19.74489854	      8.52128626	     15.16519181	     40.50766696	    -36.18125538	    -45.00000000	    -38.37584329	   1887.87399347	  -2439.89419173	     14.22618840	    179.99999979	   -361.01483560	   -135.70588764	     10.95728797	    -20.25178066
      7.38000000	    -38.94728909	    -14.16546117	     16.57592838	   -189.70784801	    826.98527936	    -11.14372967	      4.50048354	    -45.00000000	     34.20285072	    -45.00000000	    -19.11460586	    610.85704941	  -2092.42008324	     21.59952068	   -179.99999979	   1444.23206237	    -67.75384675	     19.89220046	      8.50740121	     15.13326008	     40.14610710	    -36.31798707	    -45.00000000	    -38.82744801	   1887.78666303	  -2439.95839192	     14.38543336	    179.99999979	   -361.17887887	   -135.05645502	     10.90913464	    -20.43662331
      7.39000000	    -38.90405845	    -14.07495785	     16.48043677	   -190.36255431	    827.69921261	    -10.99331671	      4.51225039	    -45.00000000	     34.17403008	    -45.00000000	    -19.01783452	    610.93121069	  -2092.35337111	     21.68827141	   -179.99999979	   1444.35717983	    -67.73240451	     19.92438930	      8.55185237	     15.18770510	     40.17429037	    -36.05603351	    -45.00000000	    -38.45686623	   1887.84299454	  -2439.90949186	     14.44820114	    179.99999979	   -360.97629844	   -134.42505792	     10.93196394	    -20.48919818
      7.40000000	    -38.85267994	    -13.99417902	     16.56636124	   -190.92385676	    828.37680778	    -10.82763886	      4.58897657	    -45.00000000	     34.13495546	    -45.00000000	    -18.94876631	    610.77883094	  -2092.27013933	     21.76860307	   -179.99999979	   1444.30987983	    -67.67147287	     19.98465514	      8.56591491	     15.11278205	     40.11269590	    -36.27860258	    -45.00000000	    -39.15054945	   1887.95255382	  -2439.95776605	     14.56354648	    179.99999979	   -361.22525122	   -133.89225717	     10.83811627	    -20.61850987
      7.41000000	    -38.75681665	    -14.03696753	     16.57206182	   -191.40482373	    829.02174465	    -10.65320811	      4.54494214	    -45.00000000	     34.24529355	    -45.00000000	    -18.94016554	    610.83746371	  -2092.18311973	     21.72166723	   -179.99999979	   1444.23517148	    -67.53291969	     19.92709477	      8.58684406	     15.34497727	     39.88884122	    -35.94498233	    -45.00000000	    -39.46781820	   1887.66375460	  -2439.71334889	     14.59690227	    179.99999979	   -361.34405874	   -133.39721844	     10.71147220	    -20.67808367
      7.42000000	    -38.76092589	    -13.89474671	     16.60587654	   -191.82580900	    829.63756480	    -10.47882684	      4.70535509	    -45.00000000	     34.19443190	    -45.00000000	    -18.88075610	    610.65732013	  -2092.13017391	     21.82692995	   -179.99999979	   1444.30797617	    -67.30464778	     20.08570950	      8.64386607	     15.12861395	     39.87867387	    -36.45314758	    -45.00000000	    -40.15461796	   1887.82707001	  -2439.76498780	     14.59526268	    179.99999979	   -361.46622852	   -132.91492643	     10.67538619	    -20.78670385
      7.43000000	    -38.65252410	    -14.04890359	     16.53652932	   -192.18988424	    830.22367064	    -10.29695968	      4.52989965	    -45.00000000	     34.40279396	    -45.00000000	    -18.91862730	    610.85116835	  -2092.05941664	     21.71083621	   -179.99999979	   1444.18699976	    -66.97889139	     19.93576749	      8.66762690	     15.53050245	     39.64902336	    -35.72061218	    -45.00000000	    -40.28493823	   1887.53987347	  -2439.49207034	     14.80872633	    179.99999979	   -361.65051594	   -132.49981531	     10.48887892	    -20.81707236
